{"title":"Hotel.Desire.(2011).BRRip.720p.x264.Ger.AAC.5.1.AMX","uid":7433031,"size":1096572133,"categoryP":"video","categoryS":"hd___movies","magnet":"?xt=urn:btih:542d8567572136361be17876f18f36748f83ce56&amp;dn=Hotel.Desire.%282011%29.BRRip.720p.x264.Ger.AAC.5.1.AMX&amp;tr=udp%3A%2F%2Ftracker.openbittorrent.com%3A80&amp;tr=udp%3A%2F%2Fopen.demonii.com%3A1337&amp;tr=udp%3A%2F%2Ftracker.coppersurfer.tk%3A6969&amp;tr=udp%3A%2F%2Fexodus.desync.com%3A6969","seeders":0,"leechers":1,"uploader":"Lawry1494","files":-1,"time":1341995667,"description":"General\nComplete name                            : Hotel.Desire.(2011).BRRip.720p.x264.Ger.AAC.5.1.AMX.mp4\nFormat                                   : MPEG-4\nFormat profile                           : Base Media\nCodec ID                                 : isom\nFile size                                : 1.02 GiB\nDuration                                 : 39mn 15s\nOverall bit rate mode                    : Variable\nOverall bit rate                         : 3 721 Kbps\n\nVideo\nID                                       : 1\nFormat                                   : AVC\nFormat/Info                              : Advanced Video Codec\nFormat profile                           : &lt;a class=&quot;__cf_email__&quot; href=&quot;/cdn-cgi/l/email-protection&quot; data-cfemail=&quot;470f2e202f070b736977&quot;&gt;[email&amp;#160;protected]&lt;/a&gt;&lt;script cf-hash='f9e31' type=&quot;text/javascript&quot;&gt;\n/* &lt;![CDATA[ */!function(){try{var t=&quot;currentScript&quot;in document?document.currentScript:function(){for(var t=document.getElementsByTagName(&quot;script&quot;),e=t.length;e--;)if(t[e].getAttribute(&quot;cf-hash&quot;))return t[e]}();if(t&amp;&amp;t.previousSibling){var e,r,n,i,c=t.previousSibling,a=c.getAttribute(&quot;data-cfemail&quot;);if(a){for(e=&quot;&quot;,r=parseInt(a.substr(0,2),16),n=2;a.length-n;n+=2)i=parseInt(a.substr(n,2),16)^r,e+=String.fromCharCode(i);e=document.createTextNode(e),c.parentNode.replaceChild(e,c)}}}catch(u){}}();/* ]]&gt; */&lt;/script&gt;\nFormat settings, CABAC                   : Yes\nFormat settings, ReFrames                : 8 frames\nCodec ID                                 : avc1\nCodec ID/Info                            : Advanced Video Coding\nDuration                                 : 39mn 15s\nBit rate                                 : 3 390 Kbps\nMaximum bit rate                         : 13.7 Mbps\nWidth                                    : 1 280 pixels\nHeight                                   : 544 pixels\nDisplay aspect ratio                     : 2.35:1\nFrame rate mode                          : Constant\nFrame rate                               : 23.976 fps\nColor space                              : YUV\nChroma subsampling                       : 4:2:0\nBit depth                                : 8 bits\nScan type                                : Progressive\nBits/(Pixel*Frame)                       : 0.203\nStream size                              : 952 MiB (91%)\nWriting library                          : x264 core 125 r2200 999b753\n\nAudio\nID                                       : 2\nFormat                                   : AAC\nFormat/Info                              : Advanced Audio Codec\nFormat profile                           : LC\nCodec ID                                 : 40\nDuration                                 : 39mn 15s\nBit rate mode                            : Variable\nBit rate                                 : 327 Kbps\nMaximum bit rate                         : 394 Kbps\nChannel(s)                               : 6 channels\nChannel positions                        : Front: L C R, Side: L R, LFE\nSampling rate                            : 48.0 KHz\nCompression mode                         : Lossy\nStream size                              : 91.8 MiB (9%)\nLanguage                                 : German\n","torrent":{"xt":"urn:btih:542d8567572136361be17876f18f36748f83ce56","amp;dn":"Hotel.Desire.%282011%29.BRRip.720p.x264.Ger.AAC.5.1.AMX","amp;tr":["udp%3A%2F%2Ftracker.openbittorrent.com%3A80","udp%3A%2F%2Fopen.demonii.com%3A1337","udp%3A%2F%2Ftracker.coppersurfer.tk%3A6969","udp%3A%2F%2Fexodus.desync.com%3A6969"],"infoHash":"542d8567572136361be17876f18f36748f83ce56","infoHashBuffer":{"type":"Buffer","data":[84,45,133,103,87,33,54,54,27,225,120,118,241,143,54,116,143,131,206,86]},"announce":[],"urlList":[]}}